<?xml version="1.0" encoding="utf-8"?>
<!-- Generator: Adobe Illustrator 26.3.1, SVG Export Plug-In . SVG Version: 6.00 Build 0)  -->
<svg version="1.1" id="Layer_1" xmlns="http://www.w3.org/2000/svg" xmlns:xlink="http://www.w3.org/1999/xlink" x="0px" y="0px"
	 viewBox="0 0 700 700" style="enable-background:new 0 0 700 700;" xml:space="preserve">
<style type="text/css">
	.st0{fill:#FDDB51;}
	.st1{fill:none;stroke:#FDDB51;stroke-width:16;stroke-miterlimit:10;}
</style>
<g>
	<path class="st0" d="M152.9,560v-13.9h64.7V560H152.9z"/>
	<path class="st0" d="M152.9,534.6V305h64.7v229.6H152.9z"/>
	<path class="st0" d="M212.5,276.2v-47.3H158v47.3c0,0.4,0,0.8-0.1,1.2l-3.5,16.1h61.8l-3.5-16.1C212.5,277,212.5,276.6,212.5,276.2
		L212.5,276.2z"/>
	<path class="st0" d="M158,208.1v9.3h54.5v-9.3c-7.1-36.3-19.8-68.1-27.2-68.1C177.8,140,165.2,171.8,158,208.1L158,208.1z"/>
	<path class="st0" d="M271.7,230.4V294c0,0.4,0,0.8-0.1,1.1l-4.6,25.8l0,208.3v29h60.4V320.9l-4.6-25.8c-0.1-0.4-0.2-0.8-0.2-1.1
		v-63.6c-6.7-33.9-18.5-63.5-25.4-63.5C290.3,166.9,278.4,196.6,271.7,230.4L271.7,230.4z"/>
	<path class="st0" d="M385.5,255v59c0,0.4,0,0.7-0.1,1.1l-4.3,23.9v221h56V339l-4.3-23.9c-0.1-0.4-0.2-0.7-0.2-1.1v-59
		c-6.2-31.5-17.2-59-23.6-59C402.7,196,391.8,223.5,385.5,255L385.5,255z"/>
	<path class="st0" d="M499.4,275.2v54.5c0,0.3,0,0.6-0.1,1l-3.9,22.1v204h51.7v-204l-3.9-22.1c-0.1-0.3-0.1-0.6-0.1-1v-54.5
		c-5.7-29.1-15.8-54.5-21.8-54.5C515.3,220.8,505.2,246.2,499.4,275.2L499.4,275.2z"/>
</g>
<circle class="st1" cx="350" cy="350" r="334"/>
</svg>
