<?xml version="1.0" encoding="UTF-8" standalone="no" ?>
<!DOCTYPE svg PUBLIC "-//W3C//DTD SVG 1.1//EN" "http://www.w3.org/Graphics/SVG/1.1/DTD/svg11.dtd">
<svg xmlns="http://www.w3.org/2000/svg" xmlns:xlink="http://www.w3.org/1999/xlink" version="1.1" width="1280" height="1024" viewBox="0 0 1280 1024" xml:space="preserve">
<desc>Created with Fabric.js 3.6.3</desc>
<defs>
</defs>
<g transform="matrix(1.9692780337941629 0 0 1.9692780337941629 640.0153846153846 512.012312418764)" id="background-logo"  >
<rect style="stroke: none; stroke-width: 1; stroke-dasharray: none; stroke-linecap: butt; stroke-dashoffset: 0; stroke-linejoin: miter; stroke-miterlimit: 4; fill: rgb(255,255,255); fill-rule: nonzero; opacity: 1;"  paint-order="stroke"  x="-325" y="-260" rx="0" ry="0" width="650" height="520" />
</g>
<g transform="matrix(3.0856806108928816 0 0 3.0856806108928816 659.4619418839329 484.13805741151657)" id="logo-logo"  >
<g style=""  paint-order="stroke"   >
		<g transform="matrix(0.204530338512313 0 0 -0.20453033851231298 0 0)"  >
<path style="stroke: none; stroke-width: 1; stroke-dasharray: none; stroke-linecap: butt; stroke-dashoffset: 0; stroke-linejoin: miter; stroke-miterlimit: 4; fill: rgb(0,0,0); fill-rule: nonzero; opacity: 1;"  paint-order="stroke"  transform=" translate(-1625, -1300.0014999999999)" d="M 1541.6 904.387 L 1646.37 802.551 H 1288.38 L 1625 1128.2 L 2091.06 677.363 h 76.44 V 1083.4 l -542.5 524.78 l -417.31 -403.7 v 140.12 l 417.1 403.46 l 542.71 -530.19 v 175.01 l -542.28 529.76 l -542.72 -525 V 909.18 l 542.5 524.78 l 417.31 -403.67 V 898.672 L 1625 1302.36 L 1082.5 777.578 V 677.363 h 367.26 h 504.38 l -325.19 316.672 l -87.35 -89.648" stroke-linecap="round" />
</g>
</g>
</g>
</svg>