<?xml version="1.0" encoding="utf-8"?>
<!-- Generator: Adobe Illustrator 26.3.1, SVG Export Plug-In . SVG Version: 6.00 Build 0)  -->
<svg version="1.1" id="Layer_1" xmlns="http://www.w3.org/2000/svg" xmlns:xlink="http://www.w3.org/1999/xlink" x="0px" y="0px"
	 viewBox="0 0 700 700" style="enable-background:new 0 0 700 700;" xml:space="preserve">
<style type="text/css">
	.st0{fill:#FDDB51;}
	.st1{fill:none;stroke:#FDDB51;stroke-width:16;stroke-miterlimit:10;}
</style>
<g>
	<path class="st0" d="M638.5,325.1h-12.7c-1.4,0-2.1,0.7-2.8,1.4h-54.3v-41.6c0-1.4-0.7-2.1-2.1-2.1h-8.5h-0.7h-0.7l-0.7,0.7
		l-16.2,31.7v-3.5c0-1.4-0.7-2.1-2.1-2.1s-2.1,0.7-2.1,2.1v5.6H532v-5.6c0-1.4-0.7-2.1-2.1-2.1c-1.4,0-2.1,0.7-2.1,2.1v5.6h-3.5
		v-5.6c0-1.4-0.7-2.1-2.1-2.1c-1.4,0-2.1,0.7-2.1,2.1v5.6h-3.5v-5.6c0-1.4-0.7-2.1-2.1-2.1s-2.1,0.7-2.1,2.1v5.6h-3.5v-5.6
		c0-1.4-0.7-2.1-2.1-2.1c-1.4,0-2.1,0.7-2.1,2.1v5.6H501v-5.6c0-1.4-0.7-2.1-2.1-2.1c-1.4,0-2.1,0.7-2.1,2.1v5.6h-3.5v-5.6
		c0-1.4-0.7-2.1-2.1-2.1c-1.4,0-2.1,0.7-2.1,2.1v5.6h-3.5v-5.6c0-1.4-0.7-2.1-2.1-2.1c-1.4,0-2.1,0.7-2.1,2.1v5.6h-3.5v-5.6
		c0-1.4-0.7-2.1-2.1-2.1c-1.4,0-2.1,0.7-2.1,2.1v5.6h-3.5v-5.6c0-1.4-0.7-2.1-2.1-2.1c-1.4,0-2.1,0.7-2.1,2.1v5.6h-3.5v-5.6
		c0-1.4-0.7-2.1-2.1-2.1s-2.1,0.7-2.1,2.1v5.6h-3.5v-5.6c0-1.4-0.7-2.1-2.1-2.1c-1.4,0-2.1,0.7-2.1,2.1v5.6h-3.5v-5.6
		c0-1.4-0.7-2.1-2.1-2.1c-1.4,0-2.1,0.7-2.1,2.1v5.6h-3.5v-5.6c0-1.4-0.7-2.1-2.1-2.1c-1.4,0-2.1,0.7-2.1,2.1v5.6h-3.5v-5.6
		c0-1.4-0.7-2.1-2.1-2.1c-1.4,0-2.1,0.7-2.1,2.1v5.6h-3.5v-5.6c0-1.4-0.7-2.1-2.1-2.1s-2.1,0.7-2.1,2.1v5.6h-3.5v-5.6
		c0-1.4-0.7-2.1-2.1-2.1c-1.4,0-2.1,0.7-2.1,2.1v5.6h-3.5v-5.6c0-1.4-0.7-2.1-2.1-2.1c-1.4,0-2.1,0.7-2.1,2.1v5.6h-3.5v-5.6
		c0-1.4-0.7-2.1-2.1-2.1c-1.4,0-2.1,0.7-2.1,2.1v5.6h-5.6v-12c0-1.4-0.7-2.1-2.1-2.1h-2.8v-10.6c0-4.9-4.2-9.9-9.2-9.9l-114.2-7.1
		c-2.8,0-5.6,0.7-7.8,2.8c-2.1,2.1-3.5,4.2-3.5,7.1l-0.7,17.6h-5.6c-4.9,0-8.5,4.2-8.5,8.5v8.5l-153,0h-1.4
		c-2.1,0.7-5.6,2.8-0.7,73.3c0,0.7,0.7,2.1,2.1,2.1h5.6c0.7,0,0.7,0,0.7-0.7c0,0,5.6-8.5,21.9-10.6l50.1-14.1c0.7,0,1.4-0.7,1.4-2.1
		v-7.8h31.7c0.7,0,0.7,0,1.4-0.7c0.7-0.7,0.7-0.7,0.7-1.4l-0.7-7.1h52.2v4.9c0,0.7,0.7,1.4,1.4,2.1c2.1,0.7,7.8,2.8,9.2,7.1
		c0.7,2.1,0,4.9-2.1,8.5c-1.4,1.4-2.1,3.5-3.5,4.9c-8.5,12.7-18.3,26.8-19.7,40.9c0,0.7,0,1.4-0.7,2.8c-0.7,2.8-0.7,5.6,0,9.2
		c2.8,8.5,12,7.8,18.3,7.1h0.7c4.2-0.7,9.2,0,14.1,0h5.6c0.7,0,1.4-0.7,2.1-1.4l11.3-36c0.7-2.1,2.1-4.2,3.5-5.6
		c2.1-1.4,4.2-0.7,7.1,0.7c1.4,0.7,2.1,0.7,3.5,1.4c4.9,1.4,9.9,1.4,14.1,1.4l19-0.7c4.2,0,8.5,0,13.4-1.4
		c0.7,7.8,4.2,35.3,11.3,54.3c0,0.7,0.7,1.4,2.1,1.4h0.7l35.3-9.2c0.7,0,0.7-0.7,1.4-0.7v-1.4c-5.6-16.2-12.7-41.6-12-49.4h2.1
		c0.7,0,2.1-0.7,2.1-2.1v-33.8h11.3c0.7,0,2.1-0.7,2.1-2.1v-2.8h5.6v5.6c0,1.4,0.7,2.1,2.1,2.1c0.7,0,2.1-0.7,2.1-2.1v-5.6h3.5v5.6
		c0,1.4,0.7,2.1,2.1,2.1c0.7,0,2.1-0.7,2.1-2.1v-5.6h3.5v5.6c0,1.4,0.7,2.1,2.1,2.1c0.7,0,2.1-0.7,2.1-2.1v-5.6h3.5v5.6
		c0,1.4,0.7,2.1,2.1,2.1c0.7,0,2.1-0.7,2.1-2.1v-5.6h3.5v5.6c0,1.4,0.7,2.1,2.1,2.1c0.7,0,2.1-0.7,2.1-2.1v-5.6h3.5v5.6
		c0,1.4,0.7,2.1,2.1,2.1c0.7,0,2.1-0.7,2.1-2.1v-5.6h3.5v5.6c0,1.4,0.7,2.1,2.1,2.1c0.7,0,2.1-0.7,2.1-2.1v-5.6h3.5v5.6
		c0,1.4,0.7,2.1,2.1,2.1c0.7,0,2.1-0.7,2.1-2.1v-5.6h3.5v5.6c0,1.4,0.7,2.1,2.1,2.1c0.7,0,2.1-0.7,2.1-2.1v-5.6h3.5v5.6
		c0,1.4,0.7,2.1,2.1,2.1c0.7,0,2.1-0.7,2.1-2.1v-5.6h3.5v5.6c0,1.4,0.7,2.1,2.1,2.1c0.7,0,2.1-0.7,2.1-2.1v-5.6h3.5v5.6
		c0,1.4,0.7,2.1,2.1,2.1c0.7,0,2.1-0.7,2.1-2.1v-5.6h3.5v5.6c0,1.4,0.7,2.1,2.1,2.1c0.7,0,2.1-0.7,2.1-2.1v-5.6h3.5v5.6
		c0,1.4,0.7,2.1,2.1,2.1c0.7,0,2.1-0.7,2.1-2.1v-5.6h3.5v5.6c0,1.4,0.7,2.1,2.1,2.1c0.7,0,2.1-0.7,2.1-2.1v-5.6h3.5v5.6
		c0,1.4,0.7,2.1,2.1,2.1c0.7,0,2.1-0.7,2.1-2.1v-5.6h3.5v5.6c0,1.4,0.7,2.1,2.1,2.1c0.7,0,2.1-0.7,2.1-2.1v-5.6l-6.4,0v5.6
		c0,1.4,0.7,2.1,2.1,2.1c0.7,0,2.1-0.7,2.1-2.1v-5.6h2.8v5.6c0,1.4,0.7,2.1,2.1,2.1c0.7,0,2.1-0.7,2.1-2.1v-5.6h7.1
		c0.7,0,2.1-0.7,2.1-2.1v-6.3l14.8,0v1.4c0,1.4,0.7,2.1,2.1,2.1c0.7,0,2.1-0.7,2.1-2.1v-1.4H623c0.7,0.7,1.4,1.4,2.8,1.4h12.7
		c2.1,0,3.5-1.4,3.5-3.5v-12.7C642,327.2,640.6,325.1,638.5,325.1L638.5,325.1z M335.9,382.9c0,3.5-2.8,6.3-6.3,6.3h-24
		c-3.5,0-6.3-2.8-6.3-6.3v-4.2c0-3.5,2.8-6.3,6.3-6.3h3.5c-0.7,4.2-0.7,12,4.2,15.5c0,0,0.7,0.7,1.4,0.7c0.7,0,1.4,0,1.4-0.7
		c0.7-0.7,0.7-2.1-0.7-2.8c-3.5-2.1-3.5-8.5-2.8-12.7h16.2c3.5,0,6.3,2.8,6.3,6.3l0,4.2L335.9,382.9z M374,304.6h-78.3v-1.4
		c0-4.9,3.5-8.5,8.5-8.5h61.4c4.9,0,8.5,3.5,8.5,8.5L374,304.6z M564.4,321.6h-16.2v-1.4c0-1.4-0.7-2.1-2.1-2.1h-2.8l15.5-31h5.6
		L564.4,321.6z"/>
</g>
<circle class="st1" cx="350" cy="350" r="334"/>
<rect x="277.6" y="537.5" class="st0" width="181" height="33"/>
<rect x="261.6" y="544.5" class="st0" width="32" height="19"/>
<rect x="279.7" y="151.7" class="st0" width="106.3" height="33"/>
<polygon class="st0" points="279.7,177.7 260.9,184.7 260.9,151.7 279.7,158.7 "/>
<polygon class="st0" points="386,177.7 475,191.1 475,144.2 386,158.7 "/>
<rect x="294.6" y="182" class="st0" width="76.5" height="9.1"/>
</svg>
