<?xml version="1.0" encoding="utf-8"?>
<!-- Generator: Adobe Illustrator 26.3.1, SVG Export Plug-In . SVG Version: 6.00 Build 0)  -->
<svg version="1.1" id="Layer_1" xmlns="http://www.w3.org/2000/svg" xmlns:xlink="http://www.w3.org/1999/xlink" x="0px" y="0px"
	 viewBox="0 0 810 810.6" style="enable-background:new 0 0 810 810.6;" xml:space="preserve">
<style type="text/css">
	.st0{fill:#FFFFFF;}
</style>
<g id="background-logo" transform="matrix(1.9692780337941629 0 0 1.9692780337941629 640.0153846153846 512.012312418764)">
	<rect x="-325" y="-260" width="411.3" height="411.3"/>
</g>
<g id="logo-logo" transform="matrix(3.0856806108928816 0 0 3.0856806108928816 659.4619418839329 484.13805741151657)">
	<g>
		<g transform="matrix(0.204530338512313 0 0 -0.20453033851231298 0 0)">
			<path class="st0" d="M-484.5-244.3l102.2-99.3h-349.2L-403.2-26L51.4-465.8H126v396.1l-529.2,511.9l-407-393.8v136.7l406.8,393.5
				L126,61.4v170.7L-403,748.9l-529.4-512.1v-476.4l529.2,511.9l407-393.7v-128.4l-407,393.8L-932.4-368v-97.8h358.2h492
				l-317.2,308.9L-484.5-244.3"/>
		</g>
	</g>
</g>
</svg>
