<?xml version="1.0" encoding="utf-8"?>
<!-- Generator: Adobe Illustrator 26.3.1, SVG Export Plug-In . SVG Version: 6.00 Build 0)  -->
<svg version="1.1" id="Layer_1" xmlns="http://www.w3.org/2000/svg" xmlns:xlink="http://www.w3.org/1999/xlink" x="0px" y="0px"
	 viewBox="0 0 700 700" style="enable-background:new 0 0 700 700;" xml:space="preserve">
<style type="text/css">
	.st0{fill:#FDDB51;}
	.st1{fill:none;stroke:#FDDB51;stroke-width:16;stroke-miterlimit:10;}
</style>
<path class="st0" d="M399.5,153.3c13.4-13.4,30.4-22.7,48.9-26.9c18.5-4.2,37.8-3,55.7,3.3l-71.7,71.7c-13.1,13.1-13.1,34.1,0,47.1
	l15.2,15.2c13.1,13.1,34.1,13.1,47.1,0l71.1-71.1l0,0c5.9,17.7,6.7,36.7,2.5,54.8c-4.3,18.1-13.5,34.7-26.7,47.9
	c-13.1,13.1-29.5,22.3-47.5,26.6c-18,4.3-36.8,3.6-54.4-2.1c-0.6,0.7-1.2,1.3-1.9,2l-217,217c-17.1,17.1-44,17.6-60.5,1.2l-5.4-5.4
	c-16.4-16.4-15.9-43.4,1.2-60.5l217-217c0.6-0.6,1.2-1.2,1.8-1.7v0c-5.7-17.6-6.5-36.5-2.1-54.5S386.4,166.4,399.5,153.3
	L399.5,153.3z M172.6,488.7c-4.3,4.3-6.7,10.1-6.7,16.2c0,6.1,2.4,11.9,6.7,16.2c4.3,4.3,10.1,6.7,16.2,6.7c6.1,0,11.9-2.4,16.2-6.7
	c4.3-4.3,6.7-10.1,6.7-16.2c0-6.1-2.4-11.9-6.7-16.2c-4.3-4.3-10.1-6.7-16.2-6.7C182.8,481.9,176.9,484.4,172.6,488.7L172.6,488.7z
	 M348.2,318.1l-97.4,97.4c-3.9,3.9-3.9,10.2,0,14.1l12,12c3.9,3.9,10.2,3.9,14.1,0l97.4-97.4c3.9-3.9,3.9-10.2,0-14.1l-12-12
	C358.4,314.2,352.1,314.2,348.2,318.1z"/>
<circle class="st1" cx="350" cy="350" r="334"/>
</svg>
